<svg fill="none" height="24" viewBox="0 0 24 24" width="24" xmlns="http://www.w3.org/2000/svg"><path d="m11.375 2c-.6904 0-1.25.55964-1.25 1.25l-.15006 1.05042c-.13436.94052-1.22738 1.39326-1.98744.82322l-.84886-.63665c-.48815-.48815-1.27961-.48815-1.76777 0l-.88388.88389c-.48815.48815-.48815 1.27961 0 1.76776l.63665.84886c.57004.76006.11729 1.85308-.82323 1.98744l-1.05041.15006c-.69036 0-1.25.5596-1.25 1.25v1.25c0 .6904.55964 1.25 1.25 1.25l1.05042.1501c.94052.1343 1.39326 1.2273.82322 1.9874l-.63665.8489c-.48815.4881-.48815 1.2796 0 1.7677l.88388.8839c.48816.4882 1.27962.4882 1.76777 0l.84886-.6366c.76006-.5701 1.85308-.1173 1.98744.8232l.15006 1.0504c0 .6904.5596 1.25 1.25 1.25h1.25c.6904 0 1.25-.5596 1.25-1.25l.1501-1.0504c.1343-.9405 1.2273-1.3933 1.9874-.8232l.8489.6366c.4881.4882 1.2796.4882 1.7677 0l.8839-.8839c.4882-.4881.4882-1.2796 0-1.7677l-.6366-.8489c-.5701-.7601-.1173-1.8531.8232-1.9874l1.0504-.1501c.6904 0 1.25-.5596 1.25-1.25v-1.25c0-.6904-.5596-1.25-1.25-1.25l-1.0504-.15006c-.9405-.13436-1.3933-1.22738-.8232-1.98744l.6366-.84886c.4882-.48815.4882-1.27961 0-1.76776l-.8839-.88389c-.4881-.48815-1.2796-.48815-1.7677 0l-.8489.63665c-.7601.57004-1.8531.1173-1.9874-.82322l-.1501-1.05042c0-.69036-.5596-1.25-1.25-1.25z" fill="#000"/><circle cx="12" cy="12" fill="#fff" r="4"/><circle cx="12" cy="12" fill="#000" r="2"/></svg>