<svg fill="none" height="24" viewBox="0 0 24 24" width="24" xmlns="http://www.w3.org/2000/svg"><path d="m12 8.99999v3.00001m0 3h.01m7.99-3c0 4.4611-5.46 7.6937-7.3586 8.683-.2053.107-.308.1605-.4504.1882-.111.0216-.271.0216-.382 0-.1424-.0277-.2451-.0812-.4504-.1882-1.89864-.9893-7.3586-4.2219-7.3586-8.683v-3.78241c0-.79951 0-1.19926.13076-1.54289.11551-.30357.30322-.57443.5469-.78918.27584-.24309.65014-.38345 1.39874-.66418l5.3618-2.01067c.2079-.07796.3118-.11694.4188-.1324.0948-.0137.1912-.0137.286 0 .107.01546.2109.05444.4188.1324l5.3618 2.01067c.7486.28073 1.1229.42109 1.3987.66418.2437.21475.4314.48561.5469.78918.1308.34363.1308.74338.1308 1.54289z" stroke="#000" stroke-linecap="round" stroke-linejoin="round" stroke-width="2"/></svg>