<?xml version="1.0" standalone="yes"?>
<svg xmlns="http://www.w3.org/2000/svg" width="100" height="60">
<path style="fill:#ffffff; stroke:none;" d="M0 0L0 16L17 13C21.4421 -1.95559 30 2.90781 30 16C42.0257 17.0035 44.0122 14.0397 41 3C48.9823 1.5401 53.6705 6.74015 61 6.59877C75.1771 6.32529 87.4576 -5.98967 99 10L100 10L100 0L0 0z"/>
<path style="fill:#010101; stroke:none;" d="M17 13L0 16C0.841845 27.3444 10.8096 23.4439 17.571 28.027C20.3099 29.8835 21.2517 34.1985 23.4429 36.696C29.9877 44.1556 39.3734 46.9734 49 47L37 36L56 39L52 58C67.9686 62.6743 75.4066 44.2223 69 32L93 19L91 27C101.565 22.7504 103.725 7.88405 91.9992 3.24923C79.5678 -1.66467 72.5613 5.98457 61 6.26929C53.6468 6.45038 49.0818 1.08125 41 3C42.8658 13.85 41.8093 16.4613 30 16C30 12.2955 31.074 6.33181 28.3966 3.33719C23.1139 -2.57133 17.7195 9.0274 17 13z"/>
<path style="fill:#ffffff; stroke:none;" d="M54 26C61.5873 27.8014 68.8161 25.9728 73 19C66.2095 17.2851 57.9051 20.1278 54 26M69 32C73.7672 44.3791 68.5405 61.7901 52 58L56 39L37 36L49 47C39.6466 46.9215 30.6119 43.7444 24.2145 36.696C21.979 34.233 20.8435 29.9914 18.277 28.027C14.1027 24.8321 5.14248 23.7353 0 21L0 60L100 60L100 19L99 19L91 27L93 19L69 32z"/>
<path style="fill:#010101; stroke:none;" d="M90 29C81.4405 30.3198 70.0764 42.9622 77.6034 51.6775C83.8576 58.919 88.8849 44.1941 89.5602 40C90.1454 36.3651 90 32.6688 90 29z"/>
</svg>
