<svg fill="none" height="24" viewBox="0 0 24 24" width="24" xmlns="http://www.w3.org/2000/svg"><path d="m2.5 5.5.61612.61612c.56594.56594 1.33352.88388 2.13388.88388s1.56794-.31794 2.13388-.88388l.23224-.23224c.56594-.56594 1.33352-.88388 2.13388-.88388.8004 0 1.5679.31794 2.1339.88388l.2322.23224c.566.56594 1.3335.88388 2.1339.88388s1.5679-.31794 2.1339-.88388l.2322-.23224c.566-.56594 1.3335-.88388 2.1339-.88388s1.5679.31794 2.1339.88388l.6161.61612m-19 5 .61612.6161c.56594.566 1.33352.8839 2.13388.8839s1.56794-.3179 2.13388-.8839l.23224-.2322c.56594-.566 1.33352-.8839 2.13388-.8839.8004 0 1.5679.3179 2.1339.8839l.2322.2322c.566.566 1.3335.8839 2.1339.8839s1.5679-.3179 2.1339-.8839l.2322-.2322c.566-.566 1.3335-.8839 2.1339-.8839s1.5679.3179 2.1339.8839l.6161.6161m-19 5 .61612.6161c.56594.566 1.33352.8839 2.13388.8839s1.56794-.3179 2.13388-.8839l.23224-.2322c.56594-.566 1.33352-.8839 2.13388-.8839.8004 0 1.5679.3179 2.1339.8839l.2322.2322c.566.566 1.3335.8839 2.1339.8839s1.5679-.3179 2.1339-.8839l.2322-.2322c.566-.566 1.3335-.8839 2.1339-.8839s1.5679.3179 2.1339.8839l.6161.6161" stroke="#000" stroke-linecap="round" stroke-linejoin="round" stroke-width="2"/></svg>